<svg width="9" height="13" viewBox="0 0 9 13" fill="none" xmlns="http://www.w3.org/2000/svg">
<path d="M8.15544 5.70122L2.67877 0.931223C2.55869 0.825778 2.41583 0.742084 2.25843 0.68497C2.10103 0.627855 1.9322 0.59845 1.76168 0.59845C1.59117 0.59845 1.42234 0.627855 1.26494 0.68497C1.10754 0.742084 0.964678 0.825778 0.844601 0.931223C0.604027 1.14201 0.468994 1.42714 0.468994 1.72435C0.468994 2.02156 0.604027 2.30669 0.844601 2.51747L5.4171 6.49997L0.844601 10.4825C0.604027 10.6933 0.468994 10.9784 0.468994 11.2756C0.468994 11.5728 0.604027 11.8579 0.844601 12.0687C0.965295 12.173 1.10843 12.2555 1.26581 12.3115C1.42318 12.3674 1.59169 12.3958 1.76168 12.395C1.93168 12.3958 2.10019 12.3674 2.25756 12.3115C2.41494 12.2555 2.55808 12.173 2.67877 12.0687L8.15544 7.29872C8.2765 7.19414 8.3726 7.06971 8.43817 6.93262C8.50375 6.79553 8.53751 6.64849 8.53751 6.49997C8.53751 6.35146 8.50375 6.20441 8.43817 6.06732C8.3726 5.93023 8.2765 5.80581 8.15544 5.70122V5.70122Z" fill="white"/>
</svg>
